<?xml version="1.0" encoding="UTF-8" standalone="no"?>
<svg width="80px" height="70px" viewBox="0 0 80 70" version="1.1" xmlns="http://www.w3.org/2000/svg" xmlns:xlink="http://www.w3.org/1999/xlink" xmlns:sketch="http://www.bohemiancoding.com/sketch/ns">
    <!-- Generator: Sketch 3.4 (15588) - http://www.bohemiancoding.com/sketch -->
    <title>Shape</title>
    <desc>Created with Sketch.</desc>
    <defs></defs>
    <g id="Page-1" stroke="none" stroke-width="1" fill="none" fill-rule="evenodd" sketch:type="MSPage">
        <g id="noun_187135_cc" sketch:type="MSLayerGroup" transform="translate(0.000000, -1.000000)" fill="#FFFFFF">
            <g id="Group" transform="translate(0.000000, 0.637820)" sketch:type="MSShapeGroup">
                <path d="M51.293418,0.53806 C51.105631,0.49226 51.00235,0.60646 50.858714,0.64656 C50.789914,0.66746 50.697087,0.60406 50.64137,0.64656 C50.163908,0.57706 49.733053,0.58646 49.33731,0.64656 C48.941567,0.70666 48.574614,0.91015 48.250575,1.08125 C45.658303,2.45 45.117165,6.93217 44.229695,9.9924 C41.833693,18.33845 35.16277,26.05418 26.842098,28.14071 C24.830048,28.23071 22.880888,28.22831 20.86511,28.24921 L20.86511,26.72781 C20.86511,25.68455 20.086495,24.98904 19.126345,24.98904 L1.00000002e-06,24.98904 L1.00000002e-06,26.72781 L1.00000002e-06,28.46656 L1.00000002e-06,45.8542 L1.00000002e-06,63.2418 L1.00000002e-06,64.9805 L1.00000002e-06,66.7193 L19.126345,66.7193 C20.086495,66.7193 20.86511,65.676 20.86511,64.9805 L20.86511,45.8542 L20.86511,32.05275 C22.022958,32.03885 23.18657,31.98505 24.34264,31.94424 L24.34264,45.8543 L24.34264,63.2419 C25.312404,63.2659 26.307457,63.1989 27.276785,63.2419 C32.475332,64.2852 36.300953,68.8494 41.621557,69.5449 C47.564634,70.5882 53.560746,69.8492 59.552521,70.197 C63.916811,69.8492 69.284361,70.5447 72.375871,66.7194 C73.700811,63.5897 72.520251,59.4167 76.505431,58.0256 C80.083801,55.5914 75.702991,51.0489 77.483481,47.9191 C79.775161,45.4848 81.230501,41.6813 78.570201,38.8993 C75.252641,35.7695 79.759521,30.94445 75.962061,27.81468 C75.369351,27.23852 74.698761,26.91957 74.005951,26.61929 C73.316411,26.32057 72.584631,26.08135 71.832521,25.96726 C71.760221,25.95686 71.687791,25.86816 71.615161,25.85875 C70.817841,25.70653 70.034631,25.64141 69.333041,25.64141 C66.005471,25.39902 62.665801,25.45257 59.335181,25.5329 C57.972544,25.4874 56.56266,25.4561 55.205617,25.31556 C52.552265,23.22905 55.835929,19.40378 55.748985,16.62177 C56.232351,12.79649 56.57142,8.68867 55.531641,5.21116 C54.960111,3.53837 53.839449,1.67023 52.162792,0.97292 C51.999075,0.86964 51.882853,0.82784 51.728105,0.75557 C51.573444,0.68327 51.432508,0.57231 51.293418,0.53823 L51.293418,0.53806 Z" id="Shape" transform="translate(40.000000, 35.362201) scale(-1, -1) translate(-40.000000, -35.362201) "></path>
            </g>
        </g>
    </g>
</svg>