<?xml version="1.0" encoding="UTF-8" standalone="no"?>
<svg width="40px" height="52px" viewBox="0 0 40 52" version="1.1" xmlns="http://www.w3.org/2000/svg" xmlns:xlink="http://www.w3.org/1999/xlink" xmlns:sketch="http://www.bohemiancoding.com/sketch/ns">
    <!-- Generator: Sketch 3.4.3 (16618) - http://www.bohemiancoding.com/sketch -->
    <title>Shape</title>
    <desc>Created with Sketch.</desc>
    <defs></defs>
    <g id="Page-1" stroke="none" stroke-width="1" fill="none" fill-rule="evenodd" sketch:type="MSPage">
        <g id="enter" sketch:type="MSLayerGroup" fill="#FFFFFF">
            <path d="M39,4.2 C39,2.2 37,0.6 35,0.6 C33,0.6 31,2.2 31,4.2 L31,32 L13.8,32 L18.8,27 C20.2,25.6 19.9,23 18.5,21.6 C17.1,20.2 14.5,19.9 13.1,21.3 L1.5,33 C1.3,33.2 1.1,33.5 1,33.8 C0.6,34.5 0.3,35.2 0.3,36 C0.3,36.8 0.6,37.6 1,38.2 C1.1,38.5 1.3,38.8 1.5,39 L13.2,50.7 C14.6,52.1 17.2,51.8 18.6,50.4 C20,49 20.3,46.4 18.9,45 L13.9,40 L35.5,40 C37.5,40 39.1,38 39.1,36 L39.1,35.9 L39.1,35.8 L39.1,4.2 L39,4.2 Z" id="Shape" sketch:type="MSShapeGroup"></path>
        </g>
    </g>
</svg>