<?xml version="1.0" encoding="UTF-8" standalone="no"?>
<svg width="44px" height="45px" viewBox="0 0 44 45" version="1.1" xmlns="http://www.w3.org/2000/svg" xmlns:xlink="http://www.w3.org/1999/xlink" xmlns:sketch="http://www.bohemiancoding.com/sketch/ns">
    <!-- Generator: Sketch 3.4.3 (16618) - http://www.bohemiancoding.com/sketch -->
    <title>Clip 2</title>
    <desc>Created with Sketch.</desc>
    <defs>
        <path id="path-1" d="M0.06,3.46096249 L1.253,1.452 C1.253,1.452 3.152,0.256 4.068,0 L2.946,2.151 C3.802,3.257 4.524,7.599 22.445,25.145 C23.685,24.328 24.994,23.557 26.939,22.74 C30.771,21.13 36.174,21.108 36.174,22.262 C36.174,23.441 35.46,24.779 29.13,28.176 C28.414,28.559 27.038,29.219 26.43,29.502 C38.278,41.015 42.418,42.675 42.418,42.675 L44,42.102 L43.462,44.137 L42.05,44.937 C42.05,44.937 36.929,43.472 22.537,31.249 C22.537,31.249 19.784,31.421 15.485,32.6 C11.186,33.778 10.012,34.31 10.012,34.31 C11.608,35.922 13.08,37.597 13.32,38.01 C13.622,38.53 12.021,38.801 12.021,38.801 C12.021,38.801 9.75,37.238 7.299,35.29 C6.054,35.626 6.17,35.64 5.389,35.85 C4.442,36.093 2.372,36.742 2.946,35.284 C3.168,34.72 3.803,32.285 3.803,32.285 C2.211,30.644 0.572,29.27 0.339,28.84 C0.339,28.84 1.755,27.777 2.722,28.46 C2.722,28.46 3.622,29.126 4.524,29.773 C4.757,28.977 4.972,28.176 4.972,28.176 C4.972,28.176 5.768,27.906 5.768,28.84 L5.768,30.644 C6.653,31.307 7.708,32.152 8.496,32.835 C8.496,32.835 11.366,31.74 13.047,30.876 C15.661,29.534 16.995,28.641 18.476,27.751 C4.15208933,11.7087735 0.542840479,4.74104453 0.06,3.7006222 L0.06,3.46096249 L0.06,3.46096249 Z"></path>
    </defs>
    <g id="Page-1" stroke="none" stroke-width="1" fill="none" fill-rule="evenodd" sketch:type="MSPage">
        <mask id="mask-2" sketch:name="Clip 2" fill="white">
            <use xlink:href="#path-1"></use>
        </mask>
        <use id="Clip-2" fill="#FFFFFF" sketch:type="MSShapeGroup" xlink:href="#path-1"></use>
    </g>
</svg>