<?xml version="1.0" encoding="UTF-8" standalone="no"?>
<svg width="22px" height="16px" viewBox="0 0 22 16" version="1.1" xmlns="http://www.w3.org/2000/svg" xmlns:xlink="http://www.w3.org/1999/xlink" xmlns:sketch="http://www.bohemiancoding.com/sketch/ns">
    <!-- Generator: Sketch 3.4 (15588) - http://www.bohemiancoding.com/sketch -->
    <title>Shape</title>
    <desc>Created with Sketch.</desc>
    <defs></defs>
    <g id="ui-flow" stroke="none" stroke-width="1" fill="none" fill-rule="evenodd" sketch:type="MSPage">
        <g id="Browse-Copy-3" sketch:type="MSArtboardGroup" transform="translate(-14.000000, -34.000000)" fill="#FFFFFF">
            <path d="M33.9839176,40.920136 L16.079864,40.920136 C15.2076976,40.920136 14.5,41.3677454 14.5,41.920136 C14.5,42.4725267 15.2076976,42.920136 16.079864,42.920136 L33.9839176,42.920136 C34.856084,42.920136 35.5637816,42.4725267 35.5637816,41.920136 C35.5637816,41.3677454 34.856084,40.920136 33.9839176,40.920136 L33.9839176,40.920136 Z M33.9839176,47.2393241 L16.079864,47.2393241 C15.2076976,47.2393241 14.5,47.6869334 14.5,48.2393241 C14.5,48.7917147 15.2076976,49.2393241 16.079864,49.2393241 L33.9839176,49.2393241 C34.856084,49.2393241 35.5637816,48.7917147 35.5637816,48.2393241 C35.5637816,47.6869334 34.856084,47.2393241 33.9839176,47.2393241 L33.9839176,47.2393241 Z M16.0801318,36.600948 L33.9841855,36.600948 C34.8563518,36.600948 35.5640495,36.1533386 35.5640495,35.600948 C35.5640495,35.0485573 34.8563518,34.600948 33.9841855,34.600948 L16.0801318,34.600948 C15.2079655,34.600948 14.5002679,35.0485573 14.5002679,35.600948 C14.5002679,36.1533386 15.2079655,36.600948 16.0801318,36.600948 L16.0801318,36.600948 Z" id="Shape" sketch:type="MSShapeGroup"></path>
        </g>
    </g>
</svg>