<?xml version="1.0" encoding="UTF-8" standalone="no"?>
<svg width="225px" height="34px" viewBox="0 0 225 34" version="1.1" xmlns="http://www.w3.org/2000/svg" xmlns:xlink="http://www.w3.org/1999/xlink" xmlns:sketch="http://www.bohemiancoding.com/sketch/ns">
    <!-- Generator: Sketch 3.4.3 (16618) - http://www.bohemiancoding.com/sketch -->
    <title>GLIDER Copy 2</title>
    <desc>Created with Sketch.</desc>
    <defs></defs>
    <g id="Branding" stroke="none" stroke-width="1" fill="none" fill-rule="evenodd" sketch:type="MSPage">
        <g id="GLIDER-Copy-2" sketch:type="MSLayerGroup" transform="translate(-16.000000, -15.000000)">
            <path d="M16.787037,32.3384678 C16.787037,41.5851823 24.2020129,48.9363203 33.4131631,48.9363203 C40.091247,48.9363203 44.7889336,45.8849045 44.7889336,45.8849045 C44.9731566,45.7462038 45.1573796,45.3763352 45.1573796,45.1451673 L45.1573796,34.5576793 C45.1573796,34.0953435 44.7889336,33.6792414 44.3283761,33.6792414 L36.3607312,33.6792414 C35.8541179,33.6792414 35.4856719,34.04911 35.4856719,34.5576793 L35.4856719,36.2683214 C35.4856719,36.7306572 35.8541179,37.1005257 36.3607312,37.1005257 L41.6571426,37.1005257 L41.6571426,43.5732259 C41.6571426,43.5732259 38.43324,45.5150359 33.3671074,45.5150359 C26.0902987,45.5150359 20.5636086,39.2735036 20.5636086,32.1535335 C20.5636086,24.9873298 26.0902987,18.8844982 33.3671074,18.8844982 C36.4528427,18.8844982 39.7688568,20.4102061 42.1177001,22.4907169 C42.6243133,22.9530526 42.9006478,22.9992862 43.3151496,22.5369504 C43.6835956,22.1208483 44.1902089,21.6585126 44.6047106,21.2424104 C44.9731566,20.8725418 44.9271009,20.317739 44.5586549,19.9478704 C41.4268638,17.2663232 38.064794,15.6481481 33.4131631,15.6481481 C24.2020129,15.6481481 16.787037,23.0917533 16.787037,32.3384678 L16.787037,32.3384678 Z M66.3583773,47.5955467 C66.3583773,48.0578824 66.7268233,48.4739845 67.2334365,48.4739845 L83.1687264,48.4739845 C83.6753396,48.4739845 84.0437856,48.0578824 84.0437856,47.5955467 L84.0437856,46.2547731 C84.0437856,45.7924373 83.6753396,45.3763352 83.1687264,45.3763352 L69.9046701,45.3763352 L69.9046701,16.9889217 C69.9046701,16.526586 69.4901683,16.1104839 69.0296108,16.1104839 L67.2334365,16.1104839 C66.7268233,16.1104839 66.3583773,16.526586 66.3583773,16.9889217 L66.3583773,47.5955467 Z M102.481438,47.5955467 C102.481438,48.0578824 102.89594,48.4739845 103.356498,48.4739845 L105.198728,48.4739845 C105.659285,48.4739845 106.073787,48.0578824 106.073787,47.5955467 L106.073787,16.9889217 C106.073787,16.526586 105.659285,16.1104839 105.198728,16.1104839 L103.356498,16.1104839 C102.89594,16.1104839 102.481438,16.526586 102.481438,16.9889217 L102.481438,47.5955467 Z M128.978847,47.5955467 C128.978847,48.0578824 129.347293,48.4739845 129.807851,48.4739845 L140.124339,48.4739845 C149.013099,48.4739845 156.289908,41.2153137 156.289908,32.2460006 C156.289908,23.3691547 149.013099,16.1104839 140.124339,16.1104839 L129.807851,16.1104839 C129.347293,16.1104839 128.978847,16.526586 128.978847,16.9889217 L128.978847,47.5955467 Z M132.479084,45.283868 L132.479084,19.2543668 L139.387447,19.2543668 C146.94059,19.2543668 152.421224,24.6636948 152.421224,32.2460006 C152.421224,39.8745401 146.94059,45.283868 139.387447,45.283868 L132.479084,45.283868 Z M176.89218,47.5955467 C176.89218,48.0578824 177.260626,48.4739845 177.76724,48.4739845 L195.913206,48.4739845 C196.419819,48.4739845 196.788265,48.0578824 196.788265,47.5955467 L196.788265,46.2547731 C196.788265,45.7924373 196.419819,45.3763352 195.913206,45.3763352 L180.438473,45.3763352 L180.438473,33.5867742 L193.656474,33.5867742 C194.117031,33.5867742 194.531533,33.2169057 194.531533,32.7083364 L194.531533,31.3675628 C194.531533,30.905227 194.117031,30.4891249 193.656474,30.4891249 L180.438473,30.4891249 L180.438473,19.2081332 L195.913206,19.2081332 C196.419819,19.2081332 196.788265,18.7920311 196.788265,18.3296953 L196.788265,16.9889217 C196.788265,16.526586 196.419819,16.1104839 195.913206,16.1104839 L177.76724,16.1104839 C177.260626,16.1104839 176.89218,16.526586 176.89218,16.9889217 L176.89218,47.5955467 Z M217.666872,47.5955467 C217.666872,48.0578824 218.035318,48.4739845 218.541932,48.4739845 L220.338106,48.4739845 C220.798663,48.4739845 221.213165,48.0578824 221.213165,47.5955467 L221.213165,35.8059857 L230.009814,35.8059857 L236.135228,48.0578824 C236.22734,48.2428167 236.457619,48.4739845 236.87212,48.4739845 L239.220964,48.4739845 C240.003911,48.4739845 240.326302,47.7342474 240.003911,47.1332109 L233.694274,35.3898836 C237.701124,33.7717085 240.510525,30.2117235 240.510525,25.9582348 C240.510525,20.4564397 235.997061,16.1104839 230.470371,16.1104839 L218.541932,16.1104839 C218.035318,16.1104839 217.666872,16.526586 217.666872,16.9889217 L217.666872,47.5955467 Z M221.305277,32.7545699 L221.305277,19.4855347 L230.240092,19.4855347 C233.786385,19.4855347 236.87212,22.4907169 236.87212,26.0044684 C236.87212,29.7956213 233.786385,32.7545699 230.240092,32.7545699 L221.305277,32.7545699 Z" id="GLIDER" fill="#FFFFFF" sketch:type="MSShapeGroup"></path>
            <rect id="Rectangle-1" sketch:type="MSShapeGroup" x="0" y="0" width="259" height="65"></rect>
        </g>
    </g>
</svg>